<?xml version="1.0" encoding="UTF-8"?>
<svg id="Layer_1" data-name="Layer 1" xmlns="http://www.w3.org/2000/svg" viewBox="0 0 31.88 31.88">
  <defs>
    <style>
      .cls-1 {
        fill: #8c62ea;
      }

      .cls-2 {
        fill: #221d34;
      }

      .cls-3 {
        fill: #ac89f1;
      }
    </style>
  </defs>
  <circle class="cls-2" cx="15.94" cy="15.94" r="15.94"/>
  <g>
    <path class="cls-3" d="m26.88,6.42v6.6c0,.13-.06.21-.14.28-1.21,1.17-2.44,2.35-3.65,3.51-.12.12-.15.22-.15.37,0,2.96-.01,5.93-.01,8.9,0,.3.04.27-.27.26h-6.53c-.08,0-.15-.01-.23-.01-.01-1.56-.01-3.12-.03-4.67-.04-2.67-.01-5.33-.01-7.99,0-.3-.01-.61.04-.9.94-.84,1.85-1.72,2.78-2.58.1-.1.14-.22.14-.36v-3.36c0-.17.04-.22.21-.22,2.56,0,5.13,0,7.69-.01.14,0,.18.05.18.19Z"/>
    <path class="cls-1" d="m15.84,13.67c0-.3-.01-.61.04-.9-.08-.05-.18-.05-.25-.12-.25-.23-.49-.44-.74-.66-.57-.54-1.15-1.08-1.73-1.63-.18-.18-.32-.37-.3-.68.03-.53,0-1.06-.01-1.6.01-.53,0-1.07.01-1.6.01-.18-.05-.22-.22-.22h-5.65c-.18-.03-.35-.03-.53,0-.13-.01-.26-.01-.4,0-.05-.01-.1-.01-.17,0h-.06c-.36-.03-.74-.03-1.1,0-.03-.01-.05-.01-.08.01-.06.05-.04.12-.04.18,0,2.17.01,4.34,0,6.51,0,.14.05.25.15.34.31.3.63.59.94.9.9.86,1.79,1.76,2.7,2.62.14.13.19.26.19.45-.01,2.94-.01,5.87-.01,8.82,0,.26,0,.27.25.27,1.45-.01,2.88-.01,4.33-.01.9,0,1.81-.01,2.71-.01-.01-1.56-.01-3.12-.03-4.67-.04-2.67-.01-5.33-.01-7.99Zm-5.1-6.07h0c.05-.03.05.01.06.04-.04-.01-.06,0-.06-.04Zm.35.81h0s.01-.01.01-.01h-.01Z"/>
    <polygon class="cls-3" points="11.1 8.4 11.09 8.41 11.09 8.4 11.1 8.4"/>
    <path class="cls-1" d="m10.81,7.64s-.06,0-.06-.04h0c.05-.03.05.01.06.04Z"/>
  </g>
</svg>